<?xml version="1.0" encoding="UTF-8" standalone="no"?>
<svg
   width="22.000099"
   height="22.000401"
   viewBox="0 0 22.000099 22.000401"
   fit=""
   preserveAspectRatio="xMidYMid"
   focusable="false"
   version="1.1"
   id="svg2"
   xmlns="http://www.w3.org/2000/svg"
   xmlns:svg="http://www.w3.org/2000/svg">
  <defs
     id="defs2" />
  <g
     id="g2">
    <circle
       cx="11.0001"
       cy="11"
       r="11"
       fill="#3b78e7"
       id="circle1"
       style="fill-rule:evenodd" />
    <path
       fill="#ffffff"
       d="m 11.0001,0 c 6.075,0 11,4.925 11,11 0,6.075 -4.925,11 -11,11 v -5.159 h 3.099 c 0.246,0.987 1.132,1.721 2.195,1.721 1.253,0 2.268,-1.015 2.268,-2.268 0,-1.253 -1.015,-2.269 -2.268,-2.269 -1.063,0 -1.949,0.734 -2.195,1.721 h -3.099 v -4.955 h 3.099 c 0.246,0.987 1.132,1.722 2.195,1.722 1.253,0 2.268,-1.016 2.268,-2.269 0,-1.253 -1.015,-2.269 -2.268,-2.269 -1.063,0 -1.949,0.734 -2.195,1.721 h -3.099 z m 6.05,16.2938 c 0,0.418 -0.339,0.756 -0.756,0.756 -0.418,0 -0.756,-0.338 -0.756,-0.756 0,-0.418 0.338,-0.756 0.756,-0.756 0.417,0 0.756,0.338 0.756,0.756 z"
       opacity="0.8"
       id="path1"
       style="fill-rule:evenodd" />
    <path
       fill="#ffffff"
       d="m 6.2541,15.746 v -4.954 h 4.746 v 4.954 z m -4.32e-5,1.0954 H 11.0001 v 5.159 C 4.9250448,22.0004 0,17.0754 0,11.0004 c 0,-6.076 4.9250448,-11 11.0001,-11 v 9.696 H 6.2540568 v -1.796 c 0.987009,-0.246 1.7210157,-1.131 1.7210157,-2.194 0,-1.253 -1.0160092,-2.269 -2.2690206,-2.269 -1.2530114,0 -2.2680207,1.016 -2.2680207,2.269 0,1.063 0.7340067,1.948 1.7210157,2.194 v 8.941 H 5.386049 Z"
       id="path2"
       style="fill-rule:evenodd" />
  </g>
</svg>
