<svg viewBox="0 0 718 141" preserveAspectRatio="none" fill="none" xmlns="http://www.w3.org/2000/svg" class="w-125 overflow-visible"><path d="M145.8 112.5c.5.5 1.3-.1 1-.7L92.9 18.6 82.7 1c-.4-.8-1.1-.8-1.5-.8-.4 0-1 .2-1.3 1l-14.6 49c-2.3 7.7 3.4 15.4 11.4 15.4h14.7c8.5 0 16.6 3.7 22.2 10.1l32.2 36.8Z" fill="#000"></path><path d="m55.2 53.4 11.4-38.1c.2-.7-.7-1.1-1.1-.5L.2 127.9c-.4.8-.1 1.4.2 1.8.3.4.9.8 1.8.4l.2-.1 57.9-21.3c6.9-2.6 9.9-10.7 6.2-17.2l-8.6-15c-4.1-7-5.1-15.4-2.7-23.1Z" fill="#000"></path><path d="M136.2 138.6h17.3c.8 0 1.2-.6 1.4-.9.1-.3.3-1-.2-1.6l-43.6-50c-5.4-6.2-15.2-5.2-19.3 1.9l-8.3 14.4c-3.5 6-8.9 10.5-15.4 12.9L7.4 137.5c-.6.2-.5 1.1.2 1.1h128.6ZM247.7 6.5c-4.7 0-9 2.8-10.8 7.2L181.7 138h14.2l15.3-34.4h59.3c1.6 0 3-.9 3.6-2.3l4.9-11.1h-61.9l29.5-66.4c.4-.9 1.7-.9 2.1 0L299.5 138h14.2L258.5 13.7c-1.8-4.4-6-7.2-10.8-7.2ZM508.8 0c-38.9 0-70.5 31.6-70.5 70.5s31.6 70.5 70.5 70.5 70.5-31.6 70.5-70.5S547.6 0 508.8 0Zm57.7 70.5c0 31.9-25.9 57.8-57.8 57.8S451 102.4 451 70.5s25.9-57.8 57.8-57.8 57.7 26 57.7 57.8ZM434.7 3.2h-15.4L379.8 62c-.8 1.2-2.7 1.2-3.5 0L336.7 3.2h-15.4l44.4 65.9c.6.9.6 2 0 2.9l-44.4 65.9h15.4l39.5-58.7c.8-1.2 2.7-1.2 3.5 0l39.5 58.7h15.4L390.3 72c-.6-.9-.6-2 0-2.9l44.4-65.9ZM705.3 3.2V117L622.5 7.3c-2.7-3.4-6.9-5.1-11.2-4.6-6.2.7-10.9 6.2-10.9 12.6v122.5h12.7V16L705 137.8h13V3.2h-12.7Z" fill="#000"></path></svg>
