<?xml version="1.0" encoding="UTF-8" standalone="no"?>
<!-- Created with Inkscape (http://www.inkscape.org/) -->

<svg
   width="147.83478mm"
   height="43.897469mm"
   viewBox="0 0 147.83478 43.897469"
   version="1.1"
   id="svg1"
   xml:space="preserve"
   xmlns="http://www.w3.org/2000/svg"
   xmlns:svg="http://www.w3.org/2000/svg"><defs
     id="defs1" /><g
     id="layer1"
     transform="translate(-26.402374,-124.47159)"><g
       id="g8"><path
         style="font-weight:300;font-size:28.2222px;line-height:1;font-family:Ubuntu;-inkscape-font-specification:'Ubuntu Light';text-align:center;text-anchor:middle;stroke-width:0;stroke-linecap:round;stroke-miterlimit:4.2"
         d="m 70.718124,161.32472 q -0.282222,-0.70555 -0.818444,-1.86266 -0.507999,-1.15711 -1.15711,-2.51178 -0.64911,-1.38289 -1.326443,-2.82222 -0.677333,-1.46755 -1.298221,-2.73755 -0.620889,-1.27 -1.100666,-2.22956 -0.479778,-0.95955 -0.705555,-1.35466 -0.366889,3.52777 -0.592666,7.67644 -0.197556,4.12044 -0.366889,8.66421 h -1.890887 q 0.253999,-5.33399 0.564444,-10.21643 0.338666,-4.88245 0.818443,-9.34155 h 1.693332 q 0.846666,1.41111 1.806221,3.27377 0.959555,1.83445 1.890888,3.83822 0.959554,1.97556 1.834443,3.92289 0.90311,1.91911 1.580443,3.47133 0.677333,-1.55222 1.552221,-3.47133 0.90311,-1.94733 1.834443,-3.92289 0.959555,-2.00377 1.91911,-3.83822 0.959554,-1.86266 1.80622,-3.27377 h 1.608666 q 0.479777,4.4591 0.790221,9.34155 0.338667,4.88244 0.592667,10.21643 h -1.947332 q -0.169333,-4.54377 -0.395111,-8.66421 -0.197555,-4.14867 -0.564444,-7.67644 -0.225778,0.39511 -0.705555,1.35466 -0.479777,0.95956 -1.100666,2.22956 -0.620888,1.27 -1.298221,2.73755 -0.677333,1.43933 -1.326444,2.82222 -0.64911,1.35467 -1.185332,2.51178 -0.508,1.15711 -0.790222,1.86266 z m 17.356647,2.82222 h -1.834443 v -14.59088 h 1.834443 z m 0.423333,-18.99354 q 0,0.64911 -0.395111,1.04422 -0.39511,0.36689 -0.959554,0.36689 -0.564444,0 -0.959555,-0.36689 -0.395111,-0.39511 -0.395111,-1.04422 0,-0.64911 0.395111,-1.016 0.395111,-0.39511 0.959555,-0.39511 0.564444,0 0.959554,0.39511 0.395111,0.36689 0.395111,1.016 z m 10.470423,19.30399 q -1.693332,0 -2.991553,-0.53623 -1.298221,-0.53622 -2.173109,-1.52399 -0.846666,-1.016 -1.298222,-2.39889 -0.451555,-1.41111 -0.451555,-3.10444 0,-1.72156 0.451555,-3.13267 0.479778,-1.41111 1.354666,-2.42711 0.874888,-1.016 2.116665,-1.55222 1.241777,-0.56444 2.793998,-0.56444 1.185332,0 2.201328,0.19755 1.04422,0.19756 1.60867,0.508 l -0.47978,1.58045 q -0.56444,-0.28223 -1.27,-0.45156 -0.70555,-0.16933 -1.890885,-0.16933 -2.427109,0 -3.697108,1.58044 -1.241777,1.55222 -1.241777,4.43089 0,1.29822 0.282222,2.39888 0.282222,1.07245 0.90311,1.86267 0.649111,0.762 1.636888,1.21355 1.015999,0.42334 2.455332,0.42334 1.185328,0 1.975558,-0.254 0.81844,-0.28223 1.18533,-0.47978 l 0.39511,1.58044 q -0.508,0.28222 -1.60867,0.53622 -1.07244,0.28223 -2.257773,0.28223 z m 11.909743,-15.18355 q 0.90311,0 1.69333,0.14111 0.81844,0.14111 1.12889,0.28223 l -0.36689,1.58044 q -0.22578,-0.11289 -0.93133,-0.22578 -0.67733,-0.14111 -1.80622,-0.14111 -1.18534,0 -1.91911,0.16933 -0.70556,0.16934 -0.93134,0.28223 v 12.78465 h -1.83444 V 150.2334 q 0.70556,-0.31045 1.94733,-0.62089 1.24178,-0.33867 3.01978,-0.33867 z m 18.034,7.59177 q 0,1.72156 -0.508,3.13267 -0.47978,1.41111 -1.38289,2.39889 -0.87488,0.98777 -2.08844,1.55222 -1.21355,0.53622 -2.68111,0.53622 -1.46755,0 -2.68111,-0.53622 -1.21355,-0.56445 -2.11666,-1.55222 -0.87489,-0.98778 -1.38289,-2.39889 -0.47978,-1.41111 -0.47978,-3.13267 0,-1.72155 0.47978,-3.13266 0.508,-1.41111 1.38289,-2.39889 0.90311,-1.016 2.11666,-1.55222 1.21356,-0.56444 2.68111,-0.56444 1.46756,0 2.68111,0.56444 1.21356,0.53622 2.08844,1.55222 0.90311,0.98778 1.38289,2.39889 0.508,1.41111 0.508,3.13266 z m -1.94733,0 q 0,-2.73755 -1.27,-4.34621 -1.27,-1.63689 -3.44311,-1.63689 -2.17311,0 -3.44311,1.63689 -1.27,1.60866 -1.27,4.34621 0,2.73756 1.27,4.34622 1.27,1.60867 3.44311,1.60867 2.17311,0 3.44311,-1.60867 1.27,-1.60866 1.27,-4.34622 z m 17.97756,7.28133 q -0.95955,-1.46755 -2.17311,-2.90688 -1.18533,-1.43934 -2.51177,-2.70934 -1.32645,-1.26999 -2.70933,-2.31422 -1.35467,-1.04422 -2.62467,-1.74977 v 9.68021 h -1.91911 v -19.55798 h 1.91911 v 9.11577 q 1.07244,-0.95956 2.37067,-2.20133 1.32644,-1.27 2.59644,-2.54 1.29822,-1.27 2.42711,-2.42711 1.12889,-1.15711 1.80622,-1.94733 h 2.31422 q -0.81844,0.87489 -1.97555,2.08844 -1.15712,1.18533 -2.45534,2.45533 -1.29822,1.27 -2.59644,2.51178 -1.27,1.21355 -2.286,2.14488 0.81845,0.508 1.74978,1.27 0.95955,0.73378 1.91911,1.63689 0.98778,0.87489 1.91911,1.86267 0.95955,0.95955 1.778,1.94733 0.84666,0.98778 1.49577,1.91911 0.67734,0.93133 1.10067,1.72155 z m 10.3858,0.42334 q -1.38289,0 -2.51178,-0.39512 -1.10067,-0.39511 -1.91911,-1.10066 -0.79022,-0.73378 -1.24178,-1.69333 -0.42333,-0.98778 -0.42333,-2.14489 0,-0.98778 0.28222,-1.778 0.28222,-0.81844 0.73378,-1.43933 0.47978,-0.64911 1.07244,-1.12889 0.62089,-0.508 1.29822,-0.87489 -1.72155,-0.84666 -2.34244,-2.00377 -0.62089,-1.15711 -0.62089,-2.51178 0,-1.21355 0.42334,-2.20133 0.42333,-0.98778 1.15711,-1.66511 0.762,-0.70556 1.80622,-1.07244 1.04422,-0.39512 2.286,-0.39512 1.46755,0 2.53999,0.45156 1.07245,0.42333 1.74978,1.12889 0.70555,0.70555 1.016,1.60866 0.33867,0.90311 0.33867,1.86267 0,0.93133 -0.28223,1.72155 -0.28222,0.762 -0.73377,1.41111 -0.45156,0.62089 -1.016,1.10067 -0.56445,0.47978 -1.10067,0.81844 1.97555,0.84667 2.76578,2.11667 0.81844,1.27 0.81844,2.68111 0,1.21355 -0.45155,2.22955 -0.42334,1.016 -1.21356,1.74978 -0.79022,0.70555 -1.91911,1.10066 -1.12889,0.42334 -2.51177,0.42334 z m 4.14866,-5.334 q 0,-1.21356 -0.47978,-1.97555 -0.45155,-0.762 -1.21355,-1.24178 -0.73378,-0.47978 -1.69334,-0.762 -0.93133,-0.28222 -1.89088,-0.59267 -1.43934,0.67734 -2.22956,1.83445 -0.79022,1.12888 -0.79022,2.73755 0,0.79022 0.254,1.46755 0.254,0.67734 0.762,1.18534 0.53622,0.508 1.29822,0.81844 0.79022,0.28222 1.83445,0.28222 1.04422,0 1.80622,-0.28222 0.79022,-0.31044 1.29822,-0.81844 0.53622,-0.508 0.79022,-1.18534 0.254,-0.67733 0.254,-1.46755 z m -7.90222,-9.93422 q 0,0.79023 0.16934,1.43934 0.19755,0.64911 0.70555,1.18533 0.508,0.508 1.41111,0.95955 0.90311,0.42334 2.37067,0.81845 1.29822,-0.73378 2.06022,-1.80622 0.762,-1.07245 0.762,-2.68111 0,-0.64911 -0.22578,-1.27 -0.19756,-0.62089 -0.64911,-1.10067 -0.42334,-0.508 -1.12889,-0.79022 -0.70556,-0.31044 -1.72155,-0.31044 -0.93134,0 -1.63689,0.28222 -0.70556,0.28222 -1.18533,0.79022 -0.45156,0.47978 -0.70556,1.12889 -0.22578,0.64911 -0.22578,1.35466 z m 17.13085,13.54666 q 1.58045,0 2.59645,-0.508 1.04422,-0.53622 1.04422,-1.778 0,-0.59266 -0.19756,-1.016 -0.16933,-0.42333 -0.59266,-0.762 -0.42334,-0.33866 -1.12889,-0.64911 -0.67733,-0.31044 -1.69333,-0.73377 -0.81845,-0.33867 -1.55222,-0.67734 -0.73378,-0.36689 -1.29823,-0.81844 -0.56444,-0.47978 -0.90311,-1.12889 -0.33866,-0.64911 -0.33866,-1.58044 0,-1.778 1.32644,-2.87867 1.35467,-1.10066 3.69711,-1.10066 1.49578,0 2.45533,0.254 0.98778,0.254 1.38289,0.45155 l -0.42333,1.63689 q -0.33867,-0.16933 -1.15711,-0.45155 -0.79023,-0.28223 -2.34245,-0.28223 -0.62089,0 -1.18533,0.14111 -0.53622,0.11289 -0.95955,0.39512 -0.42334,0.254 -0.67734,0.67733 -0.254,0.39511 -0.254,0.98778 0,0.59266 0.22578,1.01599 0.22578,0.42334 0.64911,0.762 0.45156,0.31045 1.07244,0.59267 0.64912,0.28222 1.46756,0.62089 0.84667,0.33866 1.60866,0.70555 0.79023,0.33867 1.38289,0.84667 0.59267,0.47978 0.95956,1.18533 0.36689,0.67733 0.36689,1.72156 0,1.97555 -1.49578,2.99155 -1.46756,1.016 -4.03578,1.016 -1.91911,0 -2.9351,-0.33867 -1.016,-0.31044 -1.35467,-0.47978 l 0.47978,-1.66511 q 0.0847,0.0565 0.36689,0.19756 0.28222,0.11289 0.762,0.28222 0.47977,0.14111 1.12888,0.254 0.67734,0.11289 1.55222,0.11289 z"
         id="text4"
         aria-label="MicroK8s" /><path
         id="rect4"
         style="fill:#ea5421;stroke-width:0;stroke-linecap:round;stroke-miterlimit:4.2"
         d="m 26.402374,124.47159 h 28.869507 v 43.89747 H 26.402374 Z" /><path
         id="circle4"
         style="fill:#ea5421;fill-opacity:0;stroke:#ffffff;stroke-width:2.4;stroke-linecap:round;stroke-miterlimit:4.2"
         d="m 49.361696,153.91666 a 8.5569134,8.5569134 0 0 1 -8.556913,8.55691 8.5569134,8.5569134 0 0 1 -8.556914,-8.55691 8.5569134,8.5569134 0 0 1 8.556914,-8.55692 8.5569134,8.5569134 0 0 1 8.556913,8.55692 z" /><path
         id="ellipse5"
         style="fill:#f9f9f9;fill-opacity:0;stroke:#ea5421;stroke-width:1.6;stroke-linecap:round;stroke-miterlimit:4.2"
         d="m 36.370004,153.36761 a 3.7757661,3.7312431 0 0 1 -3.775766,3.73125 3.7757661,3.7312431 0 0 1 -3.775766,-3.73125 3.7757661,3.7312431 0 0 1 3.775766,-3.73124 3.7757661,3.7312431 0 0 1 3.775766,3.73124 z" /><path
         id="ellipse6"
         style="fill:#ffffff;stroke:#ea5421;stroke-width:1.6;stroke-linecap:round;stroke-miterlimit:4.2"
         d="m 36.370004,153.36761 a 3.7757661,3.7312431 0 0 1 -3.775766,3.73125 3.7757661,3.7312431 0 0 1 -3.775766,-3.73125 3.7757661,3.7312431 0 0 1 3.775766,-3.73124 3.7757661,3.7312431 0 0 1 3.775766,3.73124 z" /><path
         id="ellipse7"
         style="fill:#ffffff;stroke:#ea5421;stroke-width:1.6;stroke-linecap:round;stroke-miterlimit:4.2"
         d="m 48.757231,146.97293 a 3.7757661,3.7312431 0 0 1 -3.775767,3.73124 3.7757661,3.7312431 0 0 1 -3.775766,-3.73124 3.7757661,3.7312431 0 0 1 3.775766,-3.73124 3.7757661,3.7312431 0 0 1 3.775767,3.73124 z" /><path
         id="ellipse8"
         style="fill:#ffffff;stroke:#ea5421;stroke-width:1.6;stroke-linecap:round;stroke-miterlimit:4.2"
         d="m 48.221025,161.22701 a 3.7757661,3.7312431 0 0 1 -3.775766,3.73124 3.7757661,3.7312431 0 0 1 -3.775766,-3.73124 3.7757661,3.7312431 0 0 1 3.775766,-3.73125 3.7757661,3.7312431 0 0 1 3.775766,3.73125 z" /></g></g></svg>
