<?xml version="1.0" encoding="UTF-8" standalone="no"?>
<!-- Created with Inkscape (http://www.inkscape.org/) -->

<svg
   width="193.12434mm"
   height="69.797493mm"
   viewBox="0 0 193.12434 69.797493"
   version="1.1"
   id="svg1"
   xml:space="preserve"
   xmlns="http://www.w3.org/2000/svg"
   xmlns:svg="http://www.w3.org/2000/svg"><defs
     id="defs1" /><g
     id="layer1"
     transform="translate(223.7504,-71.32496)"><circle
       style="fill:#000000;stroke:#4d4d4d;stroke-width:0.1;stroke-linecap:round;stroke-linejoin:round;stroke-miterlimit:4.2"
       id="circle3"
       cx="-70.99189"
       cy="126.58245"
       r="14.307736" /><circle
       style="fill:#000000;stroke:#4d4d4d;stroke-width:0.1;stroke-linecap:round;stroke-linejoin:round;stroke-miterlimit:4.2"
       id="path3"
       cx="-187.27643"
       cy="126.76472"
       r="14.307736" /><path
       style="fill:#000000;stroke:none;stroke-width:1.2;stroke-linecap:round;stroke-linejoin:round;stroke-miterlimit:4.2;stroke-dasharray:none"
       d="m -218.21747,105.2072 c -1.27286,1.30225 -3.82147,8.82984 -3.82147,8.82984 l -1.71146,0.27023 0.27023,12.25042 3.15269,0.54046 0.72061,2.79238 17.65964,1.29845 c -2.19126,-8.17787 2.51933,-19.60918 15.16768,-19.58903 9.34264,0.0149 17.32711,9.17205 13.92246,19.82188 l 86.921999,-0.8736 c -2.279317,-9.9592 3.891321,-19.31724 14.805977,-19.40968 11.966878,-0.10135 17.659677,11.97101 14.971813,18.94895 l 16.163268,-2.80921 7.476363,-2.52215 -0.270229,-2.97253 1.981684,-0.36031 0.180155,-10.35881 -2.432071,-0.45038 -2.612221,-12.25043 0.720611,-4.053448 -21.528317,-2.071764 -23.780237,-9.458048 c -14.169627,-4.429542 -26.754105,-5.817282 -41.615415,-5.134372 -8.30483,0.753253 -13.63861,1.660526 -20.09532,3.859366 -9.92696,3.380633 -28.09568,14.155965 -28.09568,14.155965 -18.00249,2.788076 -47.12411,8.493421 -48.15276,9.545821 z"
       id="path4" /><path
       style="fill:#ffffff;stroke:#000000;stroke-width:1.2;stroke-linecap:round;stroke-linejoin:round;stroke-miterlimit:4.2;stroke-dasharray:none"
       d="m -120.61766,80.283031 c 0,0 -0.89183,7.842187 -1.80616,14.807754 -18.69856,0.02306 -38.17476,1.871899 -38.17476,1.871899 l 7.38746,-1.691353 0.0603,-4.11879 -6.14069,1.361598 c 3.56973,-2.277793 12.29469,-7.660864 19.1407,-9.768488 6.27209,-1.930934 14.14503,-2.242648 19.53315,-2.46262 z"
       id="path5" /><path
       style="fill:#ffffff;stroke:#000000;stroke-width:1.2;stroke-linecap:round;stroke-linejoin:round;stroke-miterlimit:4.2;stroke-dasharray:none"
       d="m -116.75944,80.463183 0.69547,14.212401 30.78612,-0.655666 3.478595,-8.167212 c -11.336206,-4.913594 -22.670675,-5.490878 -34.960185,-5.389523 z"
       id="path6" /><path
       style="fill:#ffffff;stroke:#000000;stroke-width:1.2;stroke-linecap:round;stroke-linejoin:round;stroke-miterlimit:4.2;stroke-dasharray:none"
       d="m -217.31679,105.83614 c 3.20138,-1.37502 12.8428,-2.06784 12.8428,-2.06784 l -4.86414,8.1069 -10.44889,0.72061 c 0,0 0.40401,-4.00405 2.47023,-6.75967 z"
       id="path7" /><path
       style="fill:#ffffff;stroke:#000000;stroke-width:1.2;stroke-linecap:round;stroke-linejoin:round;stroke-miterlimit:4.2;stroke-dasharray:none"
       d="m -37.021502,97.553011 -7.83667,-0.630536 10.268738,9.908435 z"
       id="path8" /><circle
       style="fill:#ffffff;stroke:#4d4d4d;stroke-width:0.0999999;stroke-linecap:round;stroke-linejoin:round;stroke-miterlimit:4.2"
       id="circle309"
       cx="-187.27643"
       cy="126.76472"
       r="4.2996759" /><path
       id="rect2"
       style="fill:#ffffff;stroke:#ffffff;stroke-width:1.2;stroke-linecap:round;stroke-linejoin:round;stroke-miterlimit:4.2;stroke-dasharray:none"
       d="m -165.71627,100.09094 c 17.92996,-2.429768 85.885101,-4.219984 85.885101,-4.219984 0.648794,-0.02873 -11.464438,20.833004 -19.957925,29.523794 -15.078076,0.17737 -54.124216,0.19007 -66.709236,0.20694 -1.0481,-7.6558 -1.11318,-17.32507 0.78206,-25.51075 z" /><text
       xml:space="preserve"
       style="font-weight:300;font-size:16.9333px;line-height:1;font-family:Ubuntu;-inkscape-font-specification:'Ubuntu Light';text-align:center;writing-mode:lr-tb;direction:ltr;text-anchor:middle;fill:#000000;stroke:#ffffff;stroke-width:0.1;stroke-linecap:round;stroke-linejoin:round;stroke-miterlimit:4.2"
       x="-128.72108"
       y="121.60011"
       id="text2"><tspan
         id="tspan2"
         x="-128.72108"
         y="121.60011"
         style="font-weight:bold;font-size:16.9333px;fill:#000000;stroke:#ffffff;stroke-width:0.1">RCMP</tspan></text><circle
       style="fill:#ffffff;stroke:#4d4d4d;stroke-width:0.0999999;stroke-linecap:round;stroke-linejoin:round;stroke-miterlimit:4.2"
       id="circle310"
       cx="-70.859718"
       cy="126.76472"
       r="4.2996759" /></g><path
     style="fill:#000000;stroke:#000000;stroke-width:1.2;stroke-linecap:round;stroke-linejoin:round;stroke-miterlimit:4.2;stroke-dasharray:none"
     d="m 104.35981,6.0661592 -1.21086,-1.072476 2.49091,-4.28989499 4.98182,-0.103789 1.90277,4.22070499 -1.07247,0.93409 z"
     id="path309" /></svg>
