<?xml version="1.0" encoding="UTF-8" standalone="no"?>
<!-- Generator: Adobe Illustrator 19.0.0, SVG Export Plug-In . SVG Version: 6.00 Build 0)  -->

<svg
   version="1.1"
   id="Layer_1"
   x="0px"
   y="0px"
   viewBox="0 0 512 512"
   style="enable-background:new 0 0 512 512;"
   xml:space="preserve"
   sodipodi:docname="react-browser.svg"
   inkscape:version="1.3.2 (091e20ef0f, 2023-11-25, custom)"
   xmlns:inkscape="http://www.inkscape.org/namespaces/inkscape"
   xmlns:sodipodi="http://sodipodi.sourceforge.net/DTD/sodipodi-0.dtd"
   xmlns="http://www.w3.org/2000/svg"
   xmlns:svg="http://www.w3.org/2000/svg"><defs
   id="defs22" /><sodipodi:namedview
   id="namedview22"
   pagecolor="#ffffff"
   bordercolor="#000000"
   borderopacity="0.25"
   inkscape:showpageshadow="2"
   inkscape:pageopacity="0.0"
   inkscape:pagecheckerboard="0"
   inkscape:deskcolor="#d1d1d1"
   inkscape:zoom="1.4765625"
   inkscape:cx="255.66138"
   inkscape:cy="256"
   inkscape:window-width="1728"
   inkscape:window-height="1011"
   inkscape:window-x="0"
   inkscape:window-y="0"
   inkscape:window-maximized="1"
   inkscape:current-layer="Layer_1" />
<path
   style="fill:#eaeaea"
   d="m 17.655,450.207 h 476.69 V 132.414 H 17.655 Z"
   id="path1"
   sodipodi:nodetypes="ccccc" /><circle
   cx="256"
   cy="291.31049"
   r="26.141987"
   fill="#61dafb"
   id="circle1"
   style="stroke-width:12.7522" /><g
   stroke="#61dafb"
   stroke-width="1"
   fill="none"
   id="g3"
   transform="matrix(12.752188,0,0,12.752188,256,291.3105)"><ellipse
     rx="11"
     ry="4.1999998"
     id="ellipse1"
     cx="0"
     cy="0" /><ellipse
     rx="11"
     ry="4.1999998"
     transform="rotate(60)"
     id="ellipse2"
     cx="0"
     cy="0" /><ellipse
     rx="11"
     ry="4.1999998"
     transform="rotate(120)"
     id="ellipse3"
     cx="0"
     cy="0" /></g>
<path
   style="fill:#808080"
   d="M17.655,61.793v52.966h476.69V61.793H17.655z M44.138,105.931c-9.737,0-17.655-7.918-17.655-17.655  s7.918-17.655,17.655-17.655s17.655,7.918,17.655,17.655S53.875,105.931,44.138,105.931z M88.276,105.931  c-9.737,0-17.655-7.918-17.655-17.655s7.918-17.655,17.655-17.655s17.655,7.918,17.655,17.655S98.013,105.931,88.276,105.931z   M132.414,105.931c-9.737,0-17.655-7.918-17.655-17.655s7.918-17.655,17.655-17.655c9.737,0,17.655,7.918,17.655,17.655  S142.151,105.931,132.414,105.931z"
   id="path2" />
<g
   id="g7">
	<path
   style="fill:#000000"
   d="M0,44.138v70.621v17.655v335.448h512V132.414v-17.655V44.138H0z M494.345,450.207H17.655V132.414   h476.69V450.207z M17.655,114.759V61.793h476.69v52.966H17.655z"
   id="path3" />
	<circle
   style="fill:#000000"
   cx="44.138"
   cy="88.276"
   r="17.655"
   id="circle3" />
	<circle
   style="fill:#000000"
   cx="88.276"
   cy="88.276"
   r="17.655"
   id="circle4" />
	<circle
   style="fill:#000000"
   cx="132.414"
   cy="88.276"
   r="17.655"
   id="circle5" />
	
	
	
</g>
<g
   id="g8">
</g>
<g
   id="g9">
</g>
<g
   id="g10">
</g>
<g
   id="g11">
</g>
<g
   id="g12">
</g>
<g
   id="g13">
</g>
<g
   id="g14">
</g>
<g
   id="g15">
</g>
<g
   id="g16">
</g>
<g
   id="g17">
</g>
<g
   id="g18">
</g>
<g
   id="g19">
</g>
<g
   id="g20">
</g>
<g
   id="g21">
</g>
<g
   id="g22">
</g>
</svg>
