<?xml version="1.0" encoding="UTF-8"?>
<svg xmlns="http://www.w3.org/2000/svg" width="182" height="46" viewBox="0 0 182 46" fill="none">
  <path d="M0 46.0003H42.4592V42.8203H0V46.0003Z" fill="#40BE46"></path>
  <path d="M21.2311 35.3286C11.5126 35.3286 3.60547 27.4043 3.60547 17.6631C3.60547 7.92239 11.5126 0 21.2311 0C30.9497 0 38.8569 7.92436 38.8569 17.6631C38.8569 27.4022 30.9497 35.3286 21.2311 35.3286ZM21.2311 3.37411C13.3685 3.37411 6.97112 9.78539 6.97112 17.6652C6.97112 25.5449 13.3685 31.9556 21.2311 31.9556C29.0936 31.9556 35.4899 25.5439 35.4899 17.6652C35.4899 9.7865 29.0925 3.37411 21.2311 3.37411Z" fill="#40BE46"></path>
  <path d="M52.1752 18.9707C51.6346 18.9707 51.1628 18.9145 50.7578 18.8019V16.8194C51.1702 16.9206 51.5476 16.971 51.8887 16.971C52.4155 16.971 52.7911 16.8104 53.0183 16.4833C53.2454 16.1586 53.3577 15.65 53.3577 14.9586V4.43311H55.758V14.9448C55.758 16.256 55.4565 17.2537 54.8518 17.9416C54.2494 18.6263 53.3567 18.9707 52.1764 18.9707H52.1755H52.1752ZM85.8307 9.88865C85.8307 10.3566 85.9371 10.7243 86.1504 10.9949C86.3655 11.2666 86.6911 11.4006 87.1296 11.4006C87.574 11.4006 87.8973 11.2636 88.105 10.9949C88.3097 10.7227 88.4147 10.3538 88.4147 9.88865C88.4147 8.85418 87.9873 8.33659 87.1322 8.33659C86.2656 8.33659 85.8322 8.85418 85.8322 9.88865H85.8307ZM84.9717 16.8811C84.9717 17.2029 85.1287 17.4573 85.4394 17.6402C85.7518 17.824 86.1878 17.9179 86.7506 17.9179C87.5964 17.9179 88.2596 17.803 88.7382 17.5725C89.2183 17.3425 89.4582 17.0267 89.4582 16.6283C89.4582 16.3057 89.3159 16.0822 89.0337 15.9587C88.7494 15.834 88.3099 15.7749 87.7175 15.7749H86.4954C86.0635 15.7749 85.7003 15.876 85.4086 16.0772C85.1174 16.2796 84.9719 16.548 84.9719 16.8812L84.9717 16.8811ZM91.6494 7.07643V8.26642L90.2954 8.61206C90.5432 8.99756 90.6683 9.42662 90.6683 9.9035C90.6683 10.8256 90.3434 11.5441 89.6963 12.0589C89.0495 12.5725 88.152 12.8307 87.0003 12.8307L86.5758 12.8081L86.2286 12.7698C85.9854 12.9551 85.8631 13.1591 85.8631 13.3848C85.8631 13.7219 86.2967 13.892 87.1631 13.892H88.6332C89.5815 13.892 90.3061 14.0946 90.8024 14.4994C91.3 14.9044 91.548 15.4984 91.548 16.2823C91.548 17.2861 91.1273 18.0647 90.285 18.6191C89.441 19.1735 88.2297 19.4486 86.6507 19.4486C85.4446 19.4486 84.5227 19.2401 83.8844 18.8229C83.2483 18.4044 82.93 17.8201 82.93 17.0662C82.93 16.55 83.0915 16.1167 83.4177 15.7687C83.7421 15.4205 84.2199 15.1723 84.8483 15.0231C84.6074 14.9219 84.3939 14.7525 84.2138 14.5219C84.0323 14.2886 83.9435 14.0414 83.9435 13.7801C83.9435 13.4525 84.0383 13.1785 84.2311 12.9612C84.42 12.7428 84.6967 12.5305 85.0584 12.318C84.604 12.1255 84.2446 11.8118 83.9791 11.3811C83.7128 10.95 83.5807 10.4443 83.5807 9.85873C83.5807 8.92189 83.8853 8.197 84.5018 7.6848C85.1163 7.17247 85.9916 6.91686 87.1325 6.91686C87.3732 6.91686 87.6621 6.93918 87.9943 6.9826C88.3273 7.02577 88.5411 7.05791 88.6335 7.07876H91.651L91.6498 7.07643H91.6494ZM76.1904 11.3567C76.1904 12.2059 76.3315 12.8492 76.6127 13.2852C76.8942 13.7209 77.3522 13.9377 77.9871 13.9377C78.615 13.9377 79.0671 13.7219 79.3433 13.2898C79.6201 12.8563 79.7572 12.2119 79.7572 11.3567C79.7572 10.5068 79.6177 9.86905 79.3394 9.44319C79.0605 9.01709 78.6042 8.80488 77.9696 8.80488C77.3397 8.80488 76.8864 9.01561 76.6064 9.43938C76.3285 9.86266 76.1891 10.5007 76.1891 11.3551L76.1903 11.3566L76.1904 11.3567ZM82.1703 11.3567C82.1703 12.7554 81.799 13.8492 81.057 14.6377C80.3161 15.4268 79.2804 15.8206 77.9555 15.8206C77.1237 15.8206 76.3914 15.6413 75.7585 15.2799C75.124 14.9196 74.635 14.3984 74.2956 13.7232C73.9535 13.0491 73.7844 12.2603 73.7844 11.3574C73.7844 9.9539 74.1534 8.86388 74.8906 8.08613C75.6286 7.30605 76.6631 6.91698 78.0004 6.91698C78.831 6.91698 79.5629 7.09606 80.1967 7.45544C80.8323 7.81482 81.3197 8.32837 81.6596 8.99991C82.0014 9.67046 82.1703 10.4579 82.1703 11.3574V11.3567ZM71.9436 6.91466C72.2636 6.91466 72.53 6.93795 72.741 6.98358L72.5632 9.18118C72.3732 9.1304 72.1423 9.10491 71.8671 9.10491C71.1138 9.10491 70.5274 9.29758 70.108 9.68112C69.6857 10.065 69.4757 10.6035 69.4757 11.2947V15.6677H67.1151V7.07655H68.903L69.2497 8.52057H69.3661C69.6352 8.03817 69.9979 7.65193 70.4524 7.35547C70.9091 7.06306 71.4054 6.91317 71.9426 6.91317L71.9436 6.91466ZM60.9649 15.6677H58.6043V4.43457H65.0882V6.38638H60.9634V9.28261H64.8019V11.2256H60.9634V15.6677H60.9649Z" fill="#40BE46"></path>
  <path d="M61.5941 23.1367H56.4004L52.7871 45.7187H56.0456L56.6583 41.6215H61.0137L61.6267 45.7187H65.2075L61.5942 23.1367H61.5941ZM58.8198 27.137L60.5296 38.557H57.1098L58.8196 27.137H58.8198Z" fill="white"></path>
  <path d="M77.8846 45.7187C77.5298 44.88 77.4976 44.0735 77.4976 42.9766V39.4925C77.4976 37.1374 76.9168 35.4278 75.1425 34.6858C76.7233 33.9437 77.4654 32.4276 77.4654 30.1047V28.3304C77.4654 24.8463 75.8846 23.1367 72.2069 23.1367H66.8516V45.7187H70.4001V36.5245H71.626C73.239 36.5245 73.9488 37.2988 73.9488 39.3956V42.9443C73.9488 44.7831 74.0776 45.1379 74.2714 45.7187H77.8844H77.8846ZM72.1101 26.3627C73.3683 26.3627 73.9166 27.0722 73.9166 28.6852V30.9112C73.9166 32.7179 73.1102 33.2984 71.7876 33.2984H70.4003V26.3627H72.1101Z" fill="white"></path>
  <path d="M78.7891 26.3627H82.4988V45.7187H86.0474V26.3627H89.7573V23.1367H78.7891V26.3627Z" fill="white"></path>
  <path d="M91.3047 45.7187H94.8532V23.1367H91.3047V45.7187Z" fill="white"></path>
  <path d="M100.982 26.3627H106.821V23.1367H97.4336V45.7187H100.982V36.3957H105.563V33.1694H100.982V26.3627Z" fill="white"></path>
  <path d="M115.985 23.1367H110.791L107.178 45.7187H110.436L111.049 41.6215H115.404L116.017 45.7187H119.598L115.985 23.1367H115.985ZM113.21 27.137L114.92 38.557H111.5L113.21 27.137H113.21Z" fill="white"></path>
  <path d="M128.177 37.2987V40.5246C128.177 42.1379 127.468 42.7184 126.339 42.7184C125.21 42.7184 124.5 42.1379 124.5 40.5246V28.3304C124.5 26.7174 125.209 26.1045 126.339 26.1045C127.468 26.1045 128.177 26.7175 128.177 28.3304V30.7499H131.533V28.5563C131.533 24.9431 129.726 22.8784 126.242 22.8784C122.758 22.8784 120.951 24.9431 120.951 28.5563V40.2989C120.951 43.9122 122.758 45.9769 126.242 45.9769C129.726 45.9769 131.533 43.9122 131.533 40.2989V37.2987H128.177Z" fill="white"></path>
  <path d="M132.662 26.3627H136.372V45.7187H139.921V26.3627H143.63V23.1367H132.662V26.3627Z" fill="white"></path>
  <path d="M148.437 28.3304C148.437 26.7174 149.147 26.1045 150.276 26.1045C151.405 26.1045 152.115 26.7175 152.115 28.3304V40.5246C152.115 42.1379 151.405 42.7506 150.276 42.7506C149.147 42.7506 148.437 42.1378 148.437 40.5246V28.3304ZM144.889 40.2989C144.889 43.9122 146.792 45.9769 150.276 45.9769C153.76 45.9769 155.664 43.9122 155.664 40.2989V28.5563C155.664 24.9431 153.76 22.8784 150.276 22.8784C146.792 22.8784 144.889 24.9431 144.889 28.5563V40.2989Z" fill="white"></path>
  <path d="M168.986 45.7187C168.631 44.88 168.599 44.0735 168.599 42.9766V39.4925C168.599 37.1374 168.018 35.4278 166.244 34.6858C167.825 33.9437 168.567 32.4276 168.567 30.1047V28.3304C168.567 24.8463 166.986 23.1367 163.308 23.1367H157.953V45.7187H161.502V36.5245H162.728C164.341 36.5245 165.05 37.2988 165.05 39.3956V42.9443C165.05 44.7831 165.179 45.1379 165.373 45.7187H168.986H168.986ZM163.212 26.3627C164.47 26.3627 165.018 27.0722 165.018 28.6852V30.9112C165.018 32.7179 164.212 33.2984 162.889 33.2984H161.502V26.3627H163.212Z" fill="white"></path>
  <path d="M173.922 45.7187H177.47V38.2343L181.954 23.1367H178.567L175.857 33.4276L173.147 23.1367H169.438L173.922 38.2343V45.7187Z" fill="white"></path>
</svg>
