<?xml version="1.0" encoding="UTF-8" standalone="no"?>
<svg
   width="100%"
   height="100%"
   viewBox="0 0 379 114"
   version="1.1"
   xml:space="preserve"
   fill-rule="evenodd"
   clip-rule="evenodd"
   stroke-linecap="round="
   stroke-linejoin="round"
   id="svg21"
   sodipodi:docname="logo.svg"
   inkscape:version="1.3.2 (091e20ef0f, 2023-11-25, custom)"
   xmlns:inkscape="http://www.inkscape.org/namespaces/inkscape"
   xmlns:sodipodi="http://sodipodi.sourceforge.net/DTD/sodipodi-0.dtd"
   xmlns="http://www.w3.org/2000/svg"
   xmlns:svg="http://www.w3.org/2000/svg"><defs
   id="defs21">
        
    
            
        </defs><sodipodi:namedview
   id="namedview21"
   pagecolor="#ffffff"
   bordercolor="#000000"
   borderopacity="0.25"
   inkscape:showpageshadow="2"
   inkscape:pageopacity="0.0"
   inkscape:pagecheckerboard="0"
   inkscape:deskcolor="#d1d1d1"
   inkscape:zoom="1.5744615"
   inkscape:cx="127.98027"
   inkscape:cy="99.081498"
   inkscape:window-width="1728"
   inkscape:window-height="1011"
   inkscape:window-x="0"
   inkscape:window-y="0"
   inkscape:window-maximized="1"
   inkscape:current-layer="svg21" />
    <g
   transform="matrix(1.16548,0,0,1.10195,-159.60138,-136.21795)"
   id="g19">
                <g
   id="Icon"
   transform="matrix(0.858013,0,0,0.907485,-3224.99,-1435.83)">
                    <g
   id="g3">
                        <g
   transform="matrix(-0.191794,-0.715786,0.715786,-0.191794,4329.14,4673.64)"
   id="g1">
                            <path
   d="m 3901.56,610.734 c -8.03,-0.473 -15.5,-2.634 -22.36,-5.857 -6.96,-3.269 -13.16,-7.784 -18.4,-13.244 -2.09,-2.176 -4.04,-4.484 -5.83,-6.924 -1.77,-2.428 -3.4,-4.976 -4.84,-7.643 -4.24,-7.842 -6.92,-16.685 -7.24,-26.198 -0.32,-7.547 0.75,-14.813 3.05,-21.561 2.43,-7.104 6.14,-13.611 10.89,-19.258 l -1.04,-0.954 c -5.4,5.445 -9.77,11.886 -12.89,19.03 -3.06,7 -4.87,14.656 -5.22,22.743 -0.34,10.523 1.83,20.557 6.11,29.438 1.48,3.074 3.24,5.998 5.22,8.743 2,2.757 4.23,5.341 6.68,7.693 6.06,5.826 13.31,10.448 21.34,13.358 7.63,2.767 15.93,3.959 24.53,3.452 z"
   fill="#1f88c0"
   id="path1" />
                        </g>
                        <g
   transform="matrix(-0.191794,-0.715786,0.715786,-0.191794,4329.14,4673.64)"
   id="g2">
                            <path
   d="m 3875.69,496.573 c 3.93,-2.035 8.11,-3.676 12.51,-4.787 4.29,-1.082 8.76,-1.662 13.36,-1.754 2.26,0.098 4.47,0.3 6.65,0.656 8.92,1.459 16.98,5.126 24.1,9.995 3.82,2.611 7.28,5.652 10.5,8.936 4.28,4.361 8.08,9.197 11.04,14.613 4.35,7.965 7.11,16.954 7.47,26.636 0.29,7.88 -0.86,15.477 -3.44,22.454 -1.79,4.847 -4.18,9.431 -7.22,13.516 -3.44,4.623 -7.7,8.589 -12.39,11.931 -4.61,3.286 -9.74,5.85 -15.18,7.709 -0.72,0.243 -1.49,0.327 -2.16,0.689 -0.51,0.281 -0.79,0.687 -1.24,1.057 l 0.68,2.165 c 0.61,0.043 1.1,0.184 1.7,0.085 0.79,-0.13 1.48,-0.591 2.21,-0.908 7.71,-3.35 14.54,-8.211 20.29,-14.138 2.45,-2.525 4.68,-5.254 6.74,-8.109 2.28,-3.151 4.35,-6.466 6.12,-9.971 4.04,-8.008 6.58,-16.926 6.93,-26.48 0.38,-10.357 -1.7,-20.24 -5.88,-29 -2.91,-6.093 -6.76,-11.705 -11.53,-16.39 -3.58,-3.516 -7.69,-6.488 -12.11,-8.916 -7.96,-4.37 -16.97,-6.802 -26.47,-7.333 -2.25,-0.125 -4.51,-0.175 -6.81,-0.075 -4.69,-0.094 -9.26,0.365 -13.67,1.243 -4.59,0.912 -9,2.286 -13.18,4.128 z"
   fill="#1f88c0"
   id="path2" />
                        </g>
                    </g>
                    <g
   id="g6">
                        <g
   transform="matrix(-3.37109,-0.514565,0.514565,-3.37109,4078.07,1806.88)"
   id="g4">
                            <path
   d="m 22,12 c 0,-1.097 -0.903,-2 -2,-2 -0.579,0 -1.103,0.251 -1.47,0.649 C 18.202,11.006 18,11.481 18,12 c 0,1.097 0.903,2 2,2 1.097,0 2,-0.903 2,-2 z"
   fill="none"
   fill-rule="nonzero"
   stroke="#1f88c0"
   stroke-width="1.05px"
   id="path3" />
                        </g>
                        <g
   transform="matrix(-5.33921,-5.26159,-3.12106,-6.96393,4073.87,1861.55)"
   id="g5">
                            <path
   d="m 10.315,5.333 c 0,0 -0.567,0.588 -1.285,1.34 C 7.768,7.995 6.054,9.805 6.054,9.805 L 6.237,9.86 c 0,0 1.808,-1.783 3.123,-3.089 0.747,-0.743 1.329,-1.327 1.329,-1.327 z"
   fill="#1f88c0"
   id="path4" />
                        </g>
                    </g>
                    <g
   id="Padlock"
   transform="matrix(3.11426,0,0,3.11426,3938.31,1737.25)">
                        <g
   id="g7">
                            <path
   d="m 9.876,21 h 8.286 C 18.625,21 19,20.625 19,20.162 V 11.838 C 19,11.375 18.625,11 18.162,11 H 5.838 C 5.375,11 5,11.375 5,11.838 v 4.92"
   fill="none"
   stroke="#22b638"
   stroke-width="1.89px"
   stroke-linecap="butt"
   stroke-linejoin="miter"
   id="path6" />
                            <path
   d="M 8,11 V 7 c 0,-2.194 1.806,-4 4,-4 2.194,0 4,1.806 4,4 v 4"
   fill="none"
   fill-rule="nonzero"
   stroke="#22b638"
   stroke-width="1.89px"
   id="path7" />
                        </g>
                    </g>
                    <g
   id="g10">
                        <g
   transform="matrix(5.30977,0.697415,-0.697415,5.30977,3852.72,1727.97)"
   id="g8">
                            <path
   d="M 22,12 C 22,11.659 21.913,11.337 21.76,11.055 21.421,10.429 20.756,10 20,10 c -1.097,0 -2,0.903 -2,2 0,1.097 0.903,2 2,2 1.097,0 2,-0.903 2,-2 z"
   fill="none"
   fill-rule="nonzero"
   stroke="#1f88c0"
   stroke-width="0.98px"
   id="path8" />
                        </g>
                        <g
   transform="matrix(4.93114,2.49604,1.11018,5.44847,3921.41,1726.72)"
   id="g9">
                            <path
   d="m 8.902,6.77 c 0,0 -1.667,1.483 -2.875,2.596 -0.684,0.63 -1.208,1.136 -1.208,1.136 l 0.701,0.662 c 0,0 0.501,-0.527 1.126,-1.213 C 7.749,8.739 9.219,7.068 9.219,7.068 Z"
   fill="#1f88c0"
   id="path9" />
                        </g>
                    </g>
                </g>
                <g
   id="g18">
                    <g
   id="Wordmark"
   transform="matrix(1.32271,0,0,2.60848,-899.259,-791.691)">
                        <g
   id="c"
   transform="matrix(-0.0716462,0.31304,-0.583685,-0.0384251,1489.76,-444.051)">
                            <path
   d="m 2668.11,700.4 c -1.32,3.299 -1.99,6.816 -1.99,10.366 0,15.502 12.59,28.088 28.09,28.088 15.5,0 28.09,-12.586 28.09,-28.088 0,-6.655 -2.37,-13.094 -6.67,-18.169 l -8,6.781 c 2.7,3.181 3.94,7.224 4.18,11.388 0.39,6.614 -5.2,13.754 -14.54,15.871 -13.37,1.944 -20.66,-6.155 -20.66,-15.871 0,-2.225 0.42,-4.43 1.24,-6.497 z"
   fill="#e6e6e6"
   id="path10"
   style="fill:#000000" />
                        </g>
                        <g
   id="add"
   transform="matrix(0.525075,0,0,0.281607,801.871,304.987)">
                            <g
   transform="matrix(116.242,0,0,116.242,161.846,267.39)"
   id="g11">
                                <path
   d="M 0.276,0.012 C 0.227,0.012 0.186,0 0.15,-0.024 0.115,-0.048 0.088,-0.08 0.069,-0.12 0.05,-0.161 0.04,-0.205 0.04,-0.254 c 0,-0.051 0.011,-0.096 0.032,-0.136 0.022,-0.041 0.053,-0.073 0.093,-0.097 0.04,-0.023 0.089,-0.035 0.145,-0.035 0.056,0 0.103,0.012 0.142,0.036 0.039,0.023 0.069,0.055 0.09,0.096 0.02,0.04 0.031,0.085 0.031,0.134 V 0 H 0.458 V -0.095 H 0.456 C 0.446,-0.076 0.433,-0.058 0.417,-0.042 0.401,-0.026 0.381,-0.013 0.358,-0.003 0.335,0.007 0.307,0.012 0.276,0.012 Z m 0.031,-0.098 c 0.03,0 0.056,-0.007 0.079,-0.022 C 0.408,-0.123 0.426,-0.144 0.438,-0.17 0.45,-0.195 0.456,-0.224 0.456,-0.256 0.456,-0.288 0.45,-0.317 0.438,-0.342 0.426,-0.367 0.409,-0.387 0.387,-0.402 0.365,-0.417 0.338,-0.424 0.308,-0.424 c -0.032,0 -0.059,0.007 -0.082,0.022 -0.022,0.015 -0.04,0.036 -0.052,0.061 -0.012,0.026 -0.018,0.054 -0.018,0.086 0,0.031 0.006,0.06 0.018,0.086 0.012,0.025 0.029,0.046 0.052,0.061 0.022,0.015 0.049,0.022 0.081,0.022 z"
   fill="#e6e6e6"
   fill-rule="nonzero"
   id="path11"
   style="fill:#000000" />
                            </g>
                            <g
   transform="matrix(116.242,0,0,116.242,226.592,267.39)"
   id="g12">
                                <path
   d="M 0.306,0.012 C 0.265,0.012 0.229,0.006 0.196,-0.008 0.163,-0.021 0.135,-0.039 0.112,-0.064 0.089,-0.088 0.071,-0.117 0.059,-0.151 0.046,-0.185 0.04,-0.222 0.04,-0.263 c 0,-0.052 0.011,-0.097 0.032,-0.136 0.021,-0.038 0.05,-0.069 0.087,-0.09 0.037,-0.022 0.08,-0.033 0.128,-0.033 0.024,0 0.046,0.004 0.068,0.011 0.022,0.007 0.041,0.018 0.058,0.031 0.018,0.014 0.032,0.029 0.042,0.047 H 0.456 V -0.73 h 0.115 v 0.469 c 0,0.056 -0.011,0.105 -0.034,0.146 C 0.515,-0.074 0.484,-0.043 0.444,-0.021 0.405,0.001 0.358,0.012 0.306,0.012 Z m 0,-0.098 c 0.029,0 0.055,-0.007 0.078,-0.021 0.022,-0.015 0.039,-0.034 0.052,-0.06 0.012,-0.025 0.019,-0.054 0.019,-0.088 0,-0.033 -0.007,-0.062 -0.019,-0.088 C 0.423,-0.368 0.406,-0.388 0.383,-0.402 0.361,-0.417 0.335,-0.424 0.305,-0.424 c -0.029,0 -0.054,0.007 -0.077,0.022 -0.022,0.015 -0.04,0.034 -0.053,0.06 -0.012,0.025 -0.019,0.054 -0.019,0.087 0,0.033 0.007,0.062 0.019,0.088 0.013,0.025 0.031,0.045 0.054,0.059 0.022,0.015 0.048,0.022 0.077,0.022 z"
   fill="#e6e6e6"
   fill-rule="nonzero"
   id="path12"
   style="fill:#000000" />
                            </g>
                            <g
   transform="matrix(116.242,0,0,116.242,290.293,267.39)"
   id="g13">
                                <path
   d="M 0.306,0.012 C 0.265,0.012 0.229,0.006 0.196,-0.008 0.163,-0.021 0.135,-0.039 0.112,-0.064 0.089,-0.088 0.071,-0.117 0.059,-0.151 0.046,-0.185 0.04,-0.222 0.04,-0.263 c 0,-0.052 0.011,-0.097 0.032,-0.136 0.021,-0.038 0.05,-0.069 0.087,-0.09 0.037,-0.022 0.08,-0.033 0.128,-0.033 0.024,0 0.046,0.004 0.068,0.011 0.022,0.007 0.041,0.018 0.058,0.031 0.018,0.014 0.032,0.029 0.042,0.047 H 0.456 V -0.73 h 0.115 v 0.469 c 0,0.056 -0.011,0.105 -0.034,0.146 C 0.515,-0.074 0.484,-0.043 0.444,-0.021 0.405,0.001 0.358,0.012 0.306,0.012 Z m 0,-0.098 c 0.029,0 0.055,-0.007 0.078,-0.021 0.022,-0.015 0.039,-0.034 0.052,-0.06 0.012,-0.025 0.019,-0.054 0.019,-0.088 0,-0.033 -0.007,-0.062 -0.019,-0.088 C 0.423,-0.368 0.406,-0.388 0.383,-0.402 0.361,-0.417 0.335,-0.424 0.305,-0.424 c -0.029,0 -0.054,0.007 -0.077,0.022 -0.022,0.015 -0.04,0.034 -0.053,0.06 -0.012,0.025 -0.019,0.054 -0.019,0.087 0,0.033 0.007,0.062 0.019,0.088 0.013,0.025 0.031,0.045 0.054,0.059 0.022,0.015 0.048,0.022 0.077,0.022 z"
   fill="#e6e6e6"
   fill-rule="nonzero"
   id="path13"
   style="fill:#000000" />
                            </g>
                        </g>
                        <g
   id="y"
   transform="matrix(0.50291,0,0,0.281607,905.533,304.987)">
                            <path
   d="m 192.152,286.875 10.477,-18.235 c -14.825,1.466 -19.232,-2.861 -22.486,-5.249 -3.255,-2.387 -5.781,-5.401 -7.58,-9.044 -1.798,-3.642 -2.697,-7.656 -2.697,-12.042 v -34.198 h 13.344 v 34.106 c 0,2.975 0.686,5.609 2.058,7.903 1.372,2.294 3.197,4.081 5.475,5.359 2.279,1.279 4.758,1.918 7.439,1.918 2.712,0 5.211,-0.643 7.498,-1.93 2.286,-1.286 4.119,-3.072 5.498,-5.358 1.38,-2.287 2.07,-4.917 2.07,-7.892 v -34.106 h 13.297 v 34.198 c 0,4.402 -1.167,16.155 -8.466,26.335 -2.344,3.269 -10.244,18.235 -10.244,18.235 z"
   fill="#e6e6e6"
   fill-rule="nonzero"
   id="path14"
   style="fill:#000000" />
                        </g>
                    </g>
                    <g
   id="R"
   transform="matrix(0.426446,0,0,0.451034,-1192.44,-722.167)">
                        <g
   transform="translate(-0.10786,0.450801)"
   id="g16">
                            <g
   transform="matrix(12.1247,0,0,12.1247,3862.61,1929.9)"
   id="g15">
                                <path
   d="m 0.073,0 v -0.7 h 0.31 c 0.045,0 0.086,0.01 0.123,0.03 0.037,0.019 0.066,0.047 0.088,0.082 0.022,0.035 0.033,0.076 0.033,0.123 0,0.047 -0.012,0.088 -0.035,0.123 -0.023,0.036 -0.053,0.063 -0.091,0.083 l 0.069,0.131 c 0.004,0.008 0.009,0.013 0.014,0.017 0.006,0.004 0.012,0.005 0.021,0.005 H 0.664 V 0 H 0.587 C 0.56,0 0.535,-0.007 0.514,-0.02 0.493,-0.034 0.476,-0.052 0.463,-0.075 L 0.381,-0.232 c -0.006,0.001 -0.013,0.001 -0.02,0.001 -0.007,0 -0.014,0 -0.021,0 H 0.192 V 0 Z m 0.119,-0.336 h 0.176 c 0.026,0 0.049,-0.005 0.07,-0.015 0.021,-0.01 0.038,-0.025 0.051,-0.045 0.012,-0.019 0.018,-0.042 0.018,-0.069 0,-0.027 -0.006,-0.051 -0.019,-0.07 C 0.475,-0.554 0.459,-0.569 0.438,-0.579 0.417,-0.59 0.394,-0.595 0.369,-0.595 H 0.192 Z"
   fill="#e6e6e6"
   fill-rule="nonzero"
   id="path15"
   style="fill:#000000" />
                            </g>
                        </g>
                        <g
   transform="translate(0.278569,0.101881)"
   id="g17">
                            <circle
   cx="3866.4299"
   cy="1926.14"
   r="8.9230003"
   fill="none"
   stroke="#e6e6e6"
   stroke-width="2px"
   stroke-linecap="butt"
   stroke-linejoin="miter"
   id="circle16"
   style="stroke:#000000" />
                        </g>
                    </g>
                </g>
            </g>
</svg>
