<?xml version="1.0" encoding="UTF-8" standalone="no"?>
<!-- Created with Inkscape (http://www.inkscape.org/) -->

<svg
   width="39.687588mm"
   height="51.144936mm"
   viewBox="0 0 39.687588 51.144936"
   version="1.1"
   id="svg1"
   xmlns="http://www.w3.org/2000/svg"
   xmlns:svg="http://www.w3.org/2000/svg">
  <defs
     id="defs1">
    <style
       id="style1">.cls-1{fill:#231f20;stroke:#231f20;stroke-miterlimit:10;stroke-width:10px;}</style>
  </defs>
  <g
     id="layer1"
     transform="translate(-144.19792,-141.60156)">
    <linearGradient
       id="a"
       gradientUnits="userSpaceOnUse"
       x1="75"
       x2="106.522"
       y1="17.4121"
       y2="125.731"
       gradientTransform="matrix(0.26458333,0,0,0.26458333,144.19792,141.55208)">
      <stop
         offset="0"
         stop-color="#5e6294"
         id="stop1" />
      <stop
         offset="1"
         stop-color="#878bb2"
         id="stop2" />
    </linearGradient>
    <g
       id="g1">
      <circle
         cx="164.04167"
         cy="160.68579"
         fill="url(#a)"
         opacity="0.2"
         r="14.526763"
         id="circle2"
         style="fill:url(#a);stroke-width:0.264583" />
      <path
         clip-rule="evenodd"
         d="m 164.04167,178.8205 c 10.01553,0 18.1348,-8.11927 18.1348,-18.13478 0,-10.01554 -8.11927,-18.13473 -18.1348,-18.13473 -10.01554,0 -18.13472,8.11919 -18.13472,18.13473 0,10.01551 8.11918,18.13478 18.13472,18.13478 z m 0,-3.60812 c 8.02296,0 14.52668,-6.50373 14.52668,-14.52669 0,-8.02291 -6.50372,-14.52676 -14.52668,-14.52676 -8.02291,0 -14.52677,6.50385 -14.52677,14.52676 0,8.02296 6.50386,14.52669 14.52677,14.52669 z"
         fill="#5e6294"
         fill-rule="evenodd"
         opacity="0.14"
         id="path2"
         style="stroke-width:0.264583" />
      <path
         d="m 155.7406,168.29696 c -1.98712,-0.86061 -3.37732,-2.83927 -3.37732,-5.14265 0,-2.15371 1.21541,-4.02355 2.99778,-4.96105 -0.12359,-4.92379 3.8355,-8.99604 8.77557,-8.99604 4.94003,0 8.89902,4.07225 8.77546,8.99604 1.7825,0.9375 2.99773,2.80734 2.99773,4.96105 0,2.30338 -1.39012,4.28204 -3.37715,5.14265 l -0.32437,8.61801 c 0.0929,2.23097 0.76544,2.41591 3.29591,3.11176 0.24421,0.0669 0.50562,0.13891 0.78555,0.21802 -2.08439,0.47625 -3.39381,0.54187 -4.21772,0.29316 l -0.14976,3.97933 c -0.33443,3.76105 -0.30083,3.76979 2.23785,4.43045 0.34528,0.09 0.73686,0.19182 1.18004,0.31671 -5.46643,1.24962 -5.53757,-1.22635 -5.60194,-3.46525 -0.0129,-0.44741 -0.0254,-0.8853 -0.0807,-1.28191 h -0.20376 c -0.0122,0.15055 -0.0242,0.29686 -0.0357,0.43895 l -2.9e-4,0.004 c -0.25501,3.13134 -0.34253,4.20608 0.14909,4.67995 0.25689,0.24765 0.67194,0.33125 1.30371,0.45878 0.66093,0.13309 1.55866,0.3138 2.76066,0.77999 -6.44578,0.89747 -6.44086,-1.14987 -6.43247,-4.63576 0.001,-0.5424 0.003,-1.11945 -0.0201,-1.72561 h -0.19348 c -0.29877,6.71962 0.0484,6.80482 2.33412,7.36547 0.62098,0.1524 1.38512,0.33972 2.31804,0.70485 -6.56857,0.72998 -6.8314,-1.13665 -7.2363,-4.01214 -0.0717,-0.50959 -0.14792,-1.05066 -0.26439,-1.61449 -0.1165,0.56383 -0.1927,1.1049 -0.2644,1.61449 -0.40489,2.87549 -0.66776,4.74212 -7.23636,4.01214 0.93306,-0.36513 1.69709,-0.55245 2.31807,-0.70485 2.28574,-0.56065 2.6329,-0.64585 2.33413,-7.36547 h -0.19349 c -0.0228,0.60616 -0.0214,1.18321 -0.0201,1.72561 0.008,3.48589 0.0133,5.53323 -6.43247,4.63576 1.20203,-0.46619 2.09984,-0.6469 2.76053,-0.77999 0.6319,-0.12753 1.04695,-0.21113 1.30384,-0.45878 0.49162,-0.47387 0.4041,-1.54861 0.14909,-4.67995 -0.0117,-0.14314 -0.0237,-0.29078 -0.036,-0.44265 h -0.20373 c -0.0553,0.39661 -0.0679,0.83449 -0.0807,1.2819 -0.0643,2.23891 -0.13552,4.71488 -5.60186,3.46525 0.4432,-0.12488 0.8347,-0.22675 1.17991,-0.3167 2.53875,-0.66067 2.5723,-0.6694 2.23797,-4.43045 l -0.14975,-3.97934 c -0.82412,0.24871 -2.13339,0.1831 -4.21778,-0.29315 0.27993,-0.0791 0.5414,-0.15108 0.78555,-0.21802 2.53045,-0.69585 3.20302,-0.8808 3.29589,-3.11177 z"
         fill="#ef7b4d"
         id="path3"
         style="stroke-width:0.264583" />
      <circle
         cx="157.68027"
         cy="163.24931"
         fill="#fefefe"
         r="4.1776385"
         id="circle3"
         style="stroke-width:0.264583" />
      <circle
         cx="157.58533"
         cy="162.58464"
         fill="#000000"
         r="1.4241939"
         id="circle4"
         style="stroke-width:0.264583" />
      <circle
         cx="170.02328"
         cy="163.24931"
         fill="#fefefe"
         r="4.1776385"
         id="circle5"
         style="stroke-width:0.264583" />
      <circle
         cx="169.92833"
         cy="162.58464"
         fill="#000000"
         r="1.4241939"
         id="circle6"
         style="stroke-width:0.264583" />
      <path
         d="m 160.90844,171.03487 c 0,0 1.51914,1.51897 3.22816,1.51897 1.70905,0 3.22818,-1.51897 3.22818,-1.51897 v 1.89891 c 0,1.78277 -1.44531,3.22818 -3.22818,3.22818 -1.78287,0 -3.22816,-1.44541 -3.22816,-3.22818 z"
         fill="#fafafa"
         id="path6"
         style="stroke-width:0.264583" />
      <path
         d="m 160.90844,172.55384 c 0,0 1.51914,1.51924 3.22816,1.51924 1.70905,0 3.22818,-1.51924 3.22818,-1.51924 v 0.37994 c 0,1.78277 -1.44531,3.22818 -3.22818,3.22818 -1.78287,0 -3.22816,-1.44541 -3.22816,-3.22818 z"
         fill="#202124"
         id="path7"
         style="stroke-width:0.264583" />
      <path
         d="m 151.98008,169.7691 c -1.88831,-2.50872 -3.01294,-5.62594 -3.02686,-9.00739 -0.0225,-5.44947 2.8453,-10.23644 7.1628,-12.90847"
         opacity="0.16"
         stroke="#5e6294"
         stroke-linecap="round"
         stroke-width="4.30622"
         id="path8" />
      <g
         fill="#5e6294"
         id="g9"
         transform="matrix(0.26458333,0,0,0.26458333,144.19792,141.55208)">
        <circle
           cx="52.3923"
           cy="18.847401"
           opacity="0.45"
           r="2.87081"
           id="circle8" />
        <rect
           height="33.0144"
           rx="2.87081"
           width="6.4593301"
           y="56.167999"
           id="rect8"
           x="0" />
        <rect
           height="33.0144"
           rx="2.87081"
           width="6.4593301"
           x="143.541"
           y="56.167999"
           id="rect9" />
        <path
           clip-rule="evenodd"
           d="m 75,144.445 c 39.836,0 72.129,-32.293 72.129,-72.1288 C 147.129,32.4803 114.836,0.187012 75,0.187012 35.1642,0.187012 2.87082,32.4803 2.87082,72.3162 2.87082,112.152 35.1642,144.445 75,144.445 Z m 0,-3.588 c 37.854,0 68.541,-30.687 68.541,-68.5407 C 143.541,34.4623 112.854,3.7756 75,3.7756 37.146,3.7756 6.45931,34.4623 6.45931,72.3163 6.45931,110.17 37.146,140.857 75,140.857 Z"
           fill-opacity="0.2"
           fill-rule="evenodd"
           id="path9" />
      </g>
      <path
         d="m 162.13262,153.48731 c -0.19085,0.89312 -0.96642,1.48447 -1.73231,1.3208 -0.76589,-0.16365 -1.25693,-0.87861 -1.06608,-1.77173 0.19084,-0.89313 1.35805,-1.84193 2.12394,-1.67826 0.76586,0.16365 0.86529,1.23606 0.67445,2.12919 z"
         fill="#f77f4f"
         id="path10"
         style="stroke-width:0.264583" />
    </g>
    <title
       id="title1">Asset 3</title>
  </g>
</svg>
