<?xml version="1.0" encoding="UTF-8" standalone="no"?>
<!-- Created with Inkscape (http://www.inkscape.org/) -->

<svg
   width="5.5562501mm"
   height="6.3499999mm"
   viewBox="0 0 5.5562501 6.3499999"
   version="1.1"
   id="svg1"
   xml:space="preserve"
   inkscape:version="1.3 (0e150ed6c4, 2023-07-21)"
   sodipodi:docname="lock.svg"
   xmlns:inkscape="http://www.inkscape.org/namespaces/inkscape"
   xmlns:sodipodi="http://sodipodi.sourceforge.net/DTD/sodipodi-0.dtd"
   xmlns="http://www.w3.org/2000/svg"
   xmlns:svg="http://www.w3.org/2000/svg"><sodipodi:namedview
     id="namedview1"
     pagecolor="#ffffff"
     bordercolor="#000000"
     borderopacity="0.25"
     inkscape:showpageshadow="2"
     inkscape:pageopacity="0.0"
     inkscape:pagecheckerboard="true"
     inkscape:deskcolor="#d1d1d1"
     inkscape:document-units="mm"
     inkscape:zoom="31.851824"
     inkscape:cx="9.1517521"
     inkscape:cy="16.984898"
     inkscape:window-width="1728"
     inkscape:window-height="1011"
     inkscape:window-x="0"
     inkscape:window-y="0"
     inkscape:window-maximized="1"
     inkscape:current-layer="layer1" /><defs
     id="defs1" /><g
     inkscape:label="Layer 1"
     inkscape:groupmode="layer"
     id="layer1"
     transform="translate(-155.83958,-139.43541)"><g
       id="g1"
       transform="matrix(0.26458333,0,0,0.26458333,136.52288,-49.335003)"
       style="fill:#46a92d;fill-opacity:1"><path
         fill="#486baf"
         d="m 91.758,723.963 c 0.62,0 1.16,0.22 1.59,0.66 0.43,0.44 0.66,0.97 0.66,1.59 v 9 c 0,0.62 -0.22,1.16 -0.66,1.59 -0.44,0.43 -0.97,0.66 -1.59,0.66 h -16.5 c -0.62,0 -1.16,-0.22 -1.59,-0.66 -0.43,-0.44 -0.66,-0.97 -0.66,-1.59 v -9 c 0,-0.62 0.22,-1.16 0.66,-1.59 0.44,-0.43 0.97,-0.66 1.59,-0.66 h 1.12 v -3.38 c 0,-1.28 0.32,-2.47 0.96,-3.56 a 7.2,7.2 0 0 1 2.6,-2.6 c 1.09,-0.64 2.28,-0.96 3.56,-0.96 1.28,0 2.47,0.32 3.56,0.96 a 7.2,7.2 0 0 1 2.6,2.6 c 0.64,1.09 0.96,2.28 0.96,3.56 v 3.38 z m -4.88,0 v -3.38 c 0,-0.94 -0.33,-1.73 -0.98,-2.39 -0.65,-0.66 -1.45,-0.98 -2.39,-0.98 -0.94,0 -1.73,0.33 -2.39,0.98 -0.66,0.65 -0.98,1.45 -0.98,2.39 v 3.38 z"
         id="path108"
         style="fill:#46a92d;fill-opacity:1" /></g></g></svg>
