<?xml version="1.0" encoding="UTF-8" standalone="no"?>
<svg
   version="1.1"
   id="Layer_1"
   x="0px"
   y="0px"
   viewBox="0 0 77.099998 174.7"
   xml:space="preserve"
   sodipodi:docname="yubikey.svg"
   width="77.099998"
   height="174.7"
   inkscape:version="1.3 (0e150ed6c4, 2023-07-21)"
   xmlns:inkscape="http://www.inkscape.org/namespaces/inkscape"
   xmlns:sodipodi="http://sodipodi.sourceforge.net/DTD/sodipodi-0.dtd"
   xmlns="http://www.w3.org/2000/svg"
   xmlns:svg="http://www.w3.org/2000/svg"><defs
   id="defs5" /><sodipodi:namedview
   id="namedview5"
   pagecolor="#ffffff"
   bordercolor="#000000"
   borderopacity="0.25"
   inkscape:showpageshadow="2"
   inkscape:pageopacity="0.0"
   inkscape:pagecheckerboard="0"
   inkscape:deskcolor="#d1d1d1"
   inkscape:zoom="4.2954545"
   inkscape:cx="38.529101"
   inkscape:cy="87.301587"
   inkscape:window-width="1728"
   inkscape:window-height="1011"
   inkscape:window-x="0"
   inkscape:window-y="0"
   inkscape:window-maximized="1"
   inkscape:current-layer="Layer_1" />&#10;<style
   type="text/css"
   id="style1">&#10;	.st0{fill:#000000;}&#10;	.st1{fill-rule:evenodd;clip-rule:evenodd;fill:#000000;}&#10;</style>&#10;<g
   id="icon_art"
   transform="translate(-49.5,-0.6)">&#10;	<path
   class="st0"
   d="m 112.5,136.1 h -49 c -7.7,0 -13.9,-6.2 -14,-13.8 V 14.5 C 49.6,6.8 55.8,0.6 63.5,0.6 h 49.1 c 7.7,0 13.9,6.2 14,13.9 v 107.7 c -0.2,7.7 -6.4,13.9 -14.1,13.9 z M 63.5,7.7 c -3.8,0 -6.9,3 -7,6.9 v 107.7 c 0.1,3.8 3.2,6.9 7,6.9 h 49.1 c 3.8,0 6.9,-3 7,-6.8 V 14.5 c -0.1,-3.8 -3.2,-6.9 -7,-6.8 z"
   id="path1" />&#10;	<path
   class="st0"
   d="M 109.3,175.3 H 66.7 c -1.9,0 -3.5,-1.6 -3.5,-3.5 v -33.5 h 7 v 30 h 35.6 v -30 h 7 v 33.5 c 0,2 -1.6,3.5 -3.5,3.5 z"
   id="path2" />&#10;	<path
   class="st0"
   d="M 88,91.8 C 76.8,91.6 67.9,82.4 68.1,71.3 68.3,60.2 77.5,51.2 88.6,51.4 c 11,0.2 19.9,9.2 19.9,20.2 -0.1,11.2 -9.2,20.3 -20.5,20.2 z m 0,-33.5 c -7.3,0.2 -13.1,6.2 -12.9,13.5 0.2,7.3 6.2,13.1 13.5,12.9 7.2,-0.2 12.9,-6 12.9,-13.2 0,-7.3 -6.1,-13.2 -13.5,-13.2 z"
   id="path3" />&#10;	<path
   class="st1"
   d="m 94.2,27.5 c 0.1,3.4 -2.7,6.2 -6.1,6.3 -3.4,0.1 -6.2,-2.7 -6.3,-6.1 -0.1,-3.4 2.7,-6.2 6.1,-6.3 0,0 0.1,0 0.1,0 3.4,0 6.2,2.7 6.2,6.1 0,0 0,0 0,0"
   id="path4" />&#10;	<path
   class="st0"
   d="M 88,34.1 C 84.4,34 81.5,31 81.5,27.4 c 0.1,-3.6 3.1,-6.5 6.7,-6.5 3.6,0.1 6.5,3 6.5,6.6 0,3.7 -3,6.6 -6.7,6.6 z M 88,22 c -3.1,0.1 -5.5,2.6 -5.5,5.7 0,3.1 2.6,5.5 5.7,5.5 3,-0.1 5.5,-2.5 5.5,-5.6 C 93.7,24.5 91.1,22 88,22 Z"
   id="path5" />&#10;</g>&#10;</svg>
